<svg width="27" height="40" viewBox="0 0 27 40" fill="none" xmlns="http://www.w3.org/2000/svg">
<g clip-path="url(#clip0)">
<path d="M23.2255 4.79447C23.2102 4.39684 23.1873 3.85392 23.0649 3.33394C22.8661 2.46986 22.3691 1.72048 21.5738 1.11639C20.6333 0.405248 19.5169 0.0382049 18.1481 -2.8735e-05C17.2458 -0.0229689 16.3817 0.221726 15.6553 0.458775C13.0554 1.32285 11.6943 3.52511 12.1148 6.20146C12.1836 6.63733 12.2754 7.57787 11.9772 7.93727C11.9313 7.9908 11.6637 8.24314 11.5948 8.42666C11.5566 8.67135 11.6254 8.83194 11.7784 9.03075C11.9237 9.19133 12.1989 9.32133 12.2525 9.47426C12.306 9.62719 12.1072 9.87189 12.1378 9.99424C12.2066 10.1778 12.4742 10.1548 12.6424 10.3995C12.6883 10.4989 12.4819 10.7436 12.6272 10.9271C12.7724 11.1107 12.933 11.0036 13.0554 11.103C13.4224 11.3706 13.4071 11.4089 13.4912 11.8906C13.5601 12.2347 13.5983 12.51 14.1106 12.7776C14.9212 13.1906 16.137 13.0376 16.6876 12.9382C16.7946 13.4276 16.7105 13.9705 16.5576 14.1235C16.5576 14.1235 17.8881 14.3452 18.8134 14.1235C19.731 13.9017 21.2144 13.0606 21.2144 13.0606C21.2144 13.0606 20.5645 12.0359 20.4192 11.4242C20.9238 11.0189 21.3291 10.5677 21.6503 10.0554C22.2009 9.17604 22.5755 8.3196 22.8049 7.44023L22.8738 7.18789C23.0573 6.49968 23.2408 5.78854 23.2332 4.91681L23.2255 4.79447Z" fill="#F2ECE3"/>
<path d="M26.8958 31.2904C26.8958 34.4561 23.6306 35.5802 22.1625 35.5802C19.7155 35.5802 17.5668 34.4561 16.978 33.2785C17.6968 32.2768 18.0256 30.5945 18.0256 30.5945C18.0256 30.5945 17.1692 32.4374 16.611 33.3473C15.8463 34.6014 13.8505 36.4825 13.3687 36.9566C13.4146 37.1172 13.3993 37.2777 13.3917 37.4383C13.3458 38.0118 13.1088 38.4247 12.6652 38.6847C12.0612 39.0441 11.3959 39.2429 10.6389 39.2812C10.4553 39.2888 10.2795 39.2965 10.0959 39.3041C9.85125 39.3118 9.60655 39.3194 9.36186 39.3424C8.95658 39.3729 8.58954 39.5259 8.23779 39.6712C8.1078 39.7247 7.97016 39.7859 7.83252 39.8317L7.72546 39.87C7.54959 39.9388 7.37371 39.9923 7.19019 39.9923C6.51728 39.9923 4.93441 39.6635 4.93441 37.9354C4.94205 37.7518 5.15616 37.423 5.30145 37.3389C5.92083 36.9795 6.32611 36.8801 6.98373 36.8266C10.8912 36.5131 12.0612 28.4764 15.4104 28.4764C17.3986 28.4764 18.9967 27.6505 19.9832 27.6505C21.566 27.6505 23.1336 28.2775 25.0606 31.038L25.3359 31.4433C25.3359 31.4433 24.7394 29.9981 23.3095 28.614C22.6595 27.987 21.7725 27.574 20.679 27.2682C21.2143 27.077 21.7801 26.6947 22.2542 26.3888C23.3095 25.7006 23.6153 24.5307 23.5848 24.1789C23.2407 25.8841 20.6178 27.6658 15.3798 28.1476L15.3187 28.0329C14.8675 27.2911 14.5999 26.7176 14.4928 25.7924L14.4699 25.693C14.8751 25.5477 15.2269 25.2647 15.5481 25.0277C15.9839 24.6683 16.458 24.3854 16.9703 24.1483C17.4827 23.9113 18.0027 23.7125 18.5456 23.5366C18.8132 23.4448 19.0885 23.3607 19.3638 23.2536C19.4326 23.2231 19.5014 23.1925 19.5779 23.1542C19.6391 23.1084 19.7614 23.0778 19.7996 22.879C19.8073 22.7337 19.7996 22.5807 19.7843 22.4278C19.5855 21.2655 19.1802 20.2103 19.1497 19.0785C19.1038 17.9545 19.3714 16.8151 20.0061 15.8593C19.662 16.3181 19.3867 16.8228 19.2108 17.3733C19.035 17.9239 18.9738 18.505 18.9738 19.0785C18.9661 20.2332 19.3485 21.3726 19.4938 22.4507C19.5014 22.5884 19.5014 22.7184 19.4938 22.856C19.5167 22.8025 19.4938 22.856 19.4326 22.879C19.3791 22.9095 19.3179 22.9325 19.2567 22.9631C19.0044 23.0625 18.7291 23.1466 18.4615 23.2384C17.9185 23.4219 17.3756 23.613 16.8556 23.873C16.3357 24.1254 15.831 24.4389 15.3951 24.8212C14.9822 25.1653 14.554 25.5324 14.0493 25.5783C13.6517 25.5783 13.254 25.67 12.887 25.7541C12.7111 25.4024 12.497 24.4465 12.4817 23.5213C12.6576 22.466 12.8488 21.4108 13.1088 20.3785C13.2846 19.6903 13.514 19.0097 13.8046 18.3597C14.1028 17.7251 14.4852 17.0827 15.1122 16.7157C14.4622 17.0369 14.0187 17.6715 13.6746 18.2986C13.3305 18.9409 13.0935 19.6215 12.8794 20.3173C12.4511 21.7014 12.2217 23.1237 11.977 24.5383C11.9159 24.89 11.8547 25.2494 11.7782 25.5783C11.7553 25.6547 11.7323 25.7465 11.7094 25.7847L11.6635 25.8153C11.6329 25.8382 11.5947 25.8612 11.5565 25.8765C11.4112 25.9606 11.2506 26.0218 11.09 26.0906C10.8147 26.1976 10.5318 26.2818 10.2489 26.3735C10.1571 26.3965 10.0577 26.4194 9.98124 26.4423C9.91242 26.4653 9.8589 26.4959 9.79008 26.5188C9.54538 26.5953 9.30069 26.6717 9.05599 26.7635C8.78836 26.8629 8.52837 26.9852 8.27603 27.1305L7.96251 26.8705C7.96251 26.8705 9.10187 25.7159 9.6142 24.9053C11.09 22.5654 11.1894 20.2714 11.8929 18.4592C12.3441 17.3121 12.5658 16.9451 12.9941 16.4251C13.7511 15.4999 14.8522 14.8958 16.0069 14.4752L16.5039 14.544C16.5268 14.5517 17.1386 14.6434 17.8344 14.6434C18.255 14.6434 18.622 14.6052 18.9279 14.5364C19.899 14.307 21.3749 13.4658 21.4437 13.4276L21.5354 13.3741C21.7343 13.5958 21.9637 13.8099 22.2695 14.0164C24.0512 15.2399 25.0912 16.9145 25.3664 18.9944C25.5041 20.0497 25.4582 21.1126 25.4582 21.9231C25.4506 25.8153 26.8958 28.2393 26.8958 31.2904ZM12.9635 29.5698C12.7799 29.6769 12.5888 29.7304 12.3823 29.7304C11.6941 29.7304 11.09 29.134 10.7994 28.5222C10.6159 28.0864 10.593 27.6352 10.7077 27.2299C10.7383 27.1152 10.7765 27.0082 10.8377 26.9011C10.96 26.6717 11.1359 26.4806 11.3424 26.3123C11.2888 26.3353 11.2353 26.3582 11.1818 26.3812C10.4936 26.6259 9.79772 26.7941 9.12481 27.0311C8.89541 27.1152 8.67365 27.1994 8.45955 27.3064C8.36014 27.3523 8.26073 27.3982 8.16897 27.4517C7.8784 27.6429 7.61076 27.8723 7.35842 28.1246C6.85374 28.614 6.38728 29.1493 5.93613 29.6998C5.43144 30.411 5.04146 31.1757 4.71265 31.8562C4.65148 31.9786 4.22326 32.8044 4.16974 32.9344C3.558 33.7067 2.86215 34.2802 1.99042 34.349C1.47809 34.3949 1.16457 34.4714 0.682831 34.7543C0.56813 34.8155 0.399902 35.0755 0.399902 35.2208C0.399902 36.5666 1.63102 36.8189 2.15865 36.8189C2.30394 36.8189 2.43393 36.7807 2.57157 36.7272L2.65569 36.6966C2.76274 36.6584 2.86215 36.6125 2.9692 36.5742C3.24448 36.4595 3.52741 36.3372 3.84857 36.3143C4.03974 36.299 4.23091 36.2913 4.42208 36.2837C4.55972 36.276 4.70501 36.276 4.84265 36.2684C5.43144 36.2378 5.95142 36.0848 6.41787 35.8019C6.76197 35.5955 6.9455 35.2819 6.98373 34.8308C6.99138 34.7084 7.00667 34.5784 6.96844 34.4561C6.99138 34.4332 7.03726 34.3873 7.07549 34.349C7.18254 34.2649 7.2896 34.1655 7.39665 34.0432C8.65071 32.4603 10.0042 30.7321 10.8147 30.7321C11.3347 30.7321 11.5182 31.2368 11.7018 31.5198C11.9006 31.0533 12.6423 30.0516 13.1623 29.4475C13.0858 29.4934 13.0246 29.5393 12.9635 29.5698Z" fill="#C6E6D7"/>
<path d="M14.768 27.6123C14.5998 27.2835 14.4775 26.97 14.3857 26.6106C14.3781 26.5647 14.3551 26.5341 14.3475 26.4882C14.3016 26.2818 14.2634 26.0676 14.2404 25.8306C14.1181 25.8153 13.9881 25.823 13.8657 25.8382C13.8046 25.8459 13.7434 25.8459 13.6746 25.8535C13.5752 25.8688 13.4757 25.8841 13.3763 25.8994C13.3152 25.9071 13.2616 25.9224 13.2005 25.93C13.0705 25.9606 12.9481 25.9835 12.8258 26.0141C12.6652 26.0524 12.5123 26.0829 12.3746 26.1135C12.2523 26.1365 12.1376 26.1747 12.0305 26.2206C11.5641 26.4041 11.197 26.7329 11.0135 27.1611C10.8606 27.5282 10.8376 27.964 11.0364 28.4381C11.0747 28.5222 11.1206 28.5987 11.1741 28.6752C11.1894 28.6981 11.2047 28.7211 11.22 28.744C11.2582 28.7975 11.2964 28.8511 11.3347 28.8969C11.3576 28.9199 11.3729 28.9428 11.3958 28.9658C11.4417 29.0193 11.4876 29.0652 11.5411 29.111C11.5564 29.1263 11.5717 29.1416 11.5947 29.1569C11.6635 29.2105 11.7323 29.264 11.8088 29.3099C11.8241 29.3175 11.8393 29.3252 11.8546 29.3328C11.9158 29.3634 11.9693 29.394 12.0305 29.4169C12.0535 29.4246 12.084 29.4322 12.107 29.4399C12.1605 29.4551 12.214 29.4704 12.2752 29.4704C12.2982 29.4704 12.3287 29.4781 12.3517 29.4781C12.4052 29.4781 12.4664 29.4704 12.5199 29.4628C12.5505 29.4551 12.5734 29.4551 12.604 29.4551C12.6881 29.4322 12.7646 29.4016 12.8487 29.3557C12.9099 29.3175 12.9787 29.2716 13.0552 29.2181C13.0705 29.2105 13.0781 29.2028 13.0934 29.1952C13.1852 29.1263 13.2846 29.0575 13.3916 28.9811C13.4146 28.9658 13.4375 28.9505 13.4605 28.9275C13.491 28.9046 13.5293 28.8816 13.5599 28.8511C13.5981 28.8281 13.6363 28.7975 13.6746 28.7746C13.7357 28.7364 13.7893 28.6905 13.8504 28.6522C13.8963 28.6217 13.9345 28.5987 13.9804 28.5758C14.0416 28.5375 14.0951 28.4993 14.1563 28.4687C14.2022 28.4458 14.2481 28.4228 14.2939 28.3999C14.3551 28.3693 14.4086 28.3387 14.4698 28.3158C14.5157 28.2928 14.5616 28.2852 14.6075 28.2699C14.661 28.247 14.7222 28.2317 14.7757 28.2164C14.8216 28.2087 14.8674 28.2011 14.9133 28.2011C14.9592 28.1934 15.0127 28.1858 15.0586 28.1858C15.0739 28.1858 15.0892 28.1858 15.0969 28.1858C14.9669 27.9793 14.8598 27.7882 14.768 27.6123Z" fill="#F2ECE3"/>
<path d="M8.01614 27.2758C7.93202 27.1993 7.84791 27.1305 7.76379 27.0464C7.23617 27.3905 6.83089 28.0328 6.47915 28.4228C6.18092 28.7745 6.02034 29.1951 6.0127 29.608C6.37974 29.0422 6.78501 28.4993 7.23617 27.9946C7.47322 27.7346 7.72556 27.4899 8.01614 27.2758Z" fill="#F2ECE3"/>
</g>
<defs>
<clipPath id="clip0">
<rect x="0.399902" width="26.4959" height="40" fill="white"/>
</clipPath>
</defs>
</svg>
