<svg width="50" height="32" viewBox="0 0 50 32" fill="none" xmlns="http://www.w3.org/2000/svg">
<g clip-path="url(#clip0)">
<path d="M49.1764 19.2921C47.7921 16.5323 45.1024 15.0429 42.6931 14.9203C40.3364 14.8064 38.7418 16.6375 37.4802 16.5761C36.902 16.5498 36.7005 15.7526 36.3237 15.7351C35.7893 15.7088 35.2987 16.2958 35.2812 16.322C35.2899 16.322 35.2899 16.3308 35.2987 16.322C35.2812 16.3396 35.1322 16.2607 34.8869 16.322C34.7818 16.3308 34.6591 16.4009 34.554 16.4973C34.4927 16.5498 34.4226 16.6813 34.2824 16.7426C33.932 16.8652 34.0896 16.7163 33.7129 17.058C33.4238 17.426 33.2924 17.5136 32.793 17.5837C32.4338 17.6362 32.0746 17.6625 31.8468 18.1794C31.5664 18.9066 32.0921 20.5887 31.9694 20.8253C31.8468 21.0618 30.6553 21.0706 30.6553 21.0706C31.0408 21.4561 31.7154 22.3935 32.0658 22.9192C32.3987 23.4361 32.9069 24.102 33.012 24.9518C33.0558 26.1433 32.609 26.9669 31.8468 27.6765C32.5915 27.1771 34.6854 26.8004 35.5265 27.1684C36.5603 27.6152 37.5415 28.6315 38.8119 29.4288C39.7143 29.9895 40.8533 30.3925 42.0886 30.4626C43.1925 30.5327 44.349 30.3487 45.4616 29.8668C47.3103 29.0608 48.9661 27.3611 49.632 25.1884C50.2102 23.4887 50.1314 21.2371 49.1764 19.2921Z" fill="#DFC7B0"/>
<path d="M21.3947 10.5572C21.3597 10.3031 21.3597 10.0315 21.4122 9.75991C21.5612 9.1992 21.8941 8.7699 22.227 8.41069C22.56 8.05148 22.8929 7.71856 23.0418 7.36811C23.2433 6.95634 23.2433 6.44819 23.1469 5.96633C23.0681 5.6334 22.8929 5.27419 22.6914 4.97631C22.6125 4.8449 22.5424 4.74852 22.4636 4.6171C22.2621 4.33675 22.008 4.05639 21.7539 3.85488C21.4736 3.65338 21.1669 3.49567 20.8603 3.44311C20.5274 3.39054 20.1944 3.41682 19.9404 3.54824C19.6863 3.67966 19.4585 3.93373 19.3796 4.18781C19.3271 4.33675 19.3271 4.52073 19.3534 4.69596C19.3796 4.89746 19.4585 5.08145 19.5023 5.28295C19.6512 5.69473 19.8352 6.15031 19.8615 6.68474C19.8352 7.07023 19.7389 7.44696 19.5812 7.7536C19.4059 8.08653 19.1957 8.39317 19.0204 8.64724C18.8189 8.9276 18.6349 9.18168 18.486 9.43575C18.3371 9.68982 18.2056 9.97018 18.1794 10.2505C18.1443 10.4783 18.1618 10.7236 18.2144 10.969C18.7401 10.969 19.4935 10.9514 19.9491 10.8813C20.3171 10.8288 20.9041 10.6974 21.3947 10.5572Z" fill="#DFC7B0"/>
<path d="M13.0717 15.849C12.765 16.62 12.6599 16.9879 12.6073 17.6801C12.1342 17.1807 11.1968 16.7339 9.48835 16.2871C9.30436 16.0855 8.97144 15.7176 8.58595 15.1306C8.05152 14.2632 7.35938 12.7388 7.56965 10.8989C7.62222 10.4696 7.70107 10.0316 7.74487 9.54971C7.79744 9.09413 7.77116 8.57722 7.56965 8.06907C7.34186 7.5434 6.93009 7.14039 6.55336 6.7549C6.19415 6.42197 5.80866 6.06276 5.65972 5.65975C5.48449 5.25674 5.51078 4.73983 5.65972 4.28425C5.80866 3.85495 6.1153 3.44317 6.50079 3.08397C6.98265 2.62838 7.56965 2.29546 8.18293 1.93625C8.54214 1.73475 8.87507 1.55076 9.17295 1.32297C9.98773 0.814822 10.601 0.254107 11.3632 0.0701225C11.7487 -0.0350115 12.1517 -0.0350115 12.4584 0.0701225C12.6336 0.148973 12.7913 0.219062 12.914 0.35048C13.0454 0.481898 13.1418 0.604554 13.1943 0.762255C13.2469 0.937478 13.2469 1.12146 13.2206 1.2704C13.1943 1.44563 13.1418 1.62961 13.0454 1.80483C12.8702 2.16404 12.5635 2.47068 12.2832 2.75104C11.9502 3.08397 11.6173 3.39061 11.3632 3.76734C11.0566 4.19663 10.8814 4.68726 10.9339 5.19541C10.9865 5.60718 11.1617 5.96639 11.3895 6.24675C11.6173 6.55339 11.8977 6.80746 12.1517 7.00897C13.536 8.14792 14.6312 8.73492 15.1043 8.95395C15.1481 9.64608 15.2357 10.3382 15.1568 11.0128C15.1043 11.521 14.9553 12.0028 14.745 12.5197C14.6224 12.8264 14.4647 13.133 14.3158 13.4134C13.8689 14.272 13.4046 14.9904 13.0717 15.849ZM32.39 25.2585C32.39 21.1057 21.4824 15.4898 21.4824 10.9778C21.0356 11.1968 20.4486 11.3808 19.8265 11.4596C19.222 11.5385 18.7226 11.5735 18.3809 11.5473C18.4861 11.8276 18.6175 12.1167 18.7314 12.3883C19.2921 13.7901 19.5725 15.3496 19.8002 16.5674C20.212 18.5825 20.5625 19.9843 21.2809 21.2809C22.4374 23.3223 23.8129 24.0757 24.0319 24.2334C24.0582 24.251 24.0669 24.2597 24.0582 24.2597C24.0582 24.251 24.0494 24.2422 24.0319 24.2334C23.8041 24.102 22.3848 23.7516 21.0443 21.5876C20.8779 21.3072 20.7202 21.0181 20.58 20.7202C20.58 25.0044 16.5761 27.3962 11.1705 28.3161C9.95269 28.5264 9.59348 28.4826 9.2518 28.395C9.81251 28.2811 9.94393 28.3337 11.1092 28.1146C15.665 27.2648 21.386 23.6026 20.0105 19.3535C19.3534 17.2508 18.7577 13.9215 18.197 12.6249C18.048 12.2657 17.864 11.8889 17.7151 11.4772C17.5837 11.0917 17.5136 10.6361 17.5661 10.1542C17.6187 9.79502 17.7414 9.44458 17.9254 9.13793C18.1006 8.83129 18.3108 8.55094 18.5124 8.27058C18.6876 8.0165 18.8716 7.76243 18.9942 7.48207C19.1256 7.228 19.1957 6.94764 19.1957 6.69357C19.1957 6.33436 19.0468 5.95763 18.8891 5.51957C18.8102 5.29178 18.7401 5.06399 18.7139 4.80992C18.6963 4.73983 18.6876 4.6785 18.6876 4.60841C18.3722 4.68726 17.5311 4.87124 16.7251 5.67727C16.2695 6.15914 15.8314 6.85127 15.7351 7.71863C15.6036 8.66483 15.9629 9.78626 15.8402 11.1092C15.7876 11.6962 15.6124 12.2569 15.3846 12.7913C15.2532 13.1506 15.1043 13.4572 14.929 13.7638C14.4472 14.6575 14.0091 15.297 13.6762 16.1118C12.9665 17.7414 12.9841 19.3447 13.1418 20.4223C13.317 21.4912 13.5711 22.1045 13.501 22.1308C13.4747 22.1308 13.0717 21.5963 12.7913 20.4749C12.6336 19.8704 12.5197 19.0556 12.5898 18.1357C11.8801 17.5837 10.3469 16.5061 7.87629 16.5061C3.47818 16.4623 0 19.371 0 23.2522C0 30.9708 9.90888 31.3475 14.8064 31.3475C15.5774 31.3475 19.187 31.4264 20.4135 31.4526C20.6851 31.4526 20.9655 31.4614 21.2371 31.4702C27.8518 31.4702 32.39 28.0095 32.39 25.2585Z" fill="#C6E6D7"/>
</g>
<defs>
<clipPath id="clip0">
<rect width="50" height="31.4701" fill="white"/>
</clipPath>
</defs>
</svg>
