<svg width="24" height="40" viewBox="0 0 24 40" fill="none" xmlns="http://www.w3.org/2000/svg">
<path d="M18.031 33.0269C18.1183 32.6776 18.2871 32.3633 18.4909 32.0781C18.5782 31.9617 18.6713 31.8511 18.7703 31.7405L19.0438 31.4495L19.5851 30.8499C20.2953 30.0409 20.9821 29.2085 21.5991 28.3296C21.896 27.893 22.2103 27.4332 22.3674 26.9559C22.4722 26.4961 22.1928 25.9722 21.8727 25.5648C21.5467 25.1398 21.1509 24.7673 20.79 24.3599C20.6212 24.1503 20.4233 23.935 20.3709 23.6498C20.3593 23.5857 20.3709 23.5159 20.3884 23.4518C20.1323 23.3762 19.8587 23.3529 19.5735 23.3995C19.5269 23.4053 19.4862 23.4227 19.4396 23.4286C19.1079 23.4926 18.811 23.6032 18.5374 23.7429C17.2161 24.4239 16.5584 25.8733 16.3081 27.0083C16.343 27.6078 16.3954 28.2073 16.4944 28.8011C16.733 30.297 17.2627 31.7347 18.031 33.0269Z" fill="#C6E6D7"/>
<path d="M20.54 23.2597C20.5808 23.2248 20.7088 23.2597 20.8893 23.3586C20.8951 23.3586 20.8951 23.3645 20.9009 23.3645C20.8485 23.3237 20.7845 23.2888 20.7205 23.2655C20.6564 23.2481 20.5808 23.2015 20.5051 23.2597C20.4527 23.3121 20.412 23.3819 20.3887 23.4518C20.3945 23.4518 20.4061 23.4576 20.412 23.4576C20.4352 23.3878 20.4702 23.3179 20.54 23.2597Z" fill="white"/>
<path d="M20.5397 23.2597C20.4699 23.3237 20.4349 23.3877 20.4175 23.4576C20.4291 23.4634 20.4349 23.4634 20.4466 23.4634C20.464 23.3994 20.4931 23.3354 20.5455 23.2888C20.627 23.2306 20.7784 23.3121 20.889 23.3586C20.7085 23.2597 20.5805 23.2189 20.5397 23.2597Z" fill="white"/>
<path d="M20.639 23.1724C20.5691 22.8872 20.5458 22.5554 20.6157 22.3808C20.7612 22.0258 21.0988 21.6823 21.3607 21.2458C21.547 20.9315 21.6692 20.5473 21.6867 20.1224C21.7041 19.7499 21.6285 19.3541 21.4597 18.9815C21.1686 18.3587 20.5807 17.8116 19.8357 17.5962C19.2595 17.4158 18.4911 17.4565 17.8392 17.7941C16.9137 18.2831 16.4248 19.2085 16.4015 20.0351C16.3782 20.8383 17.0185 21.368 17.0068 21.7929C17.001 21.9908 16.7333 22.0665 16.7333 22.1946C16.7275 22.375 16.9312 22.538 16.937 22.5438V22.538C16.9428 22.5438 16.9195 22.5962 16.937 22.6777C16.9428 22.7126 16.9661 22.7533 17.001 22.7883C17.0185 22.8057 17.0651 22.829 17.0883 22.8756C17.1349 22.992 17.0825 22.9396 17.1989 23.0677C17.327 23.1608 17.3561 23.2074 17.3852 23.3762C17.4085 23.4984 17.4143 23.6206 17.5947 23.6905C17.682 23.7254 17.8159 23.7196 17.9498 23.7021C18.3922 23.3936 18.9102 23.1608 19.5272 23.0618C19.923 23.0095 20.2897 23.0444 20.639 23.1724Z" fill="#DFC7B0"/>
<path d="M23.3979 26.7289C23.1418 25.134 21.6051 23.7545 20.8892 23.3587C20.7786 23.3121 20.6272 23.2306 20.5457 23.2888C20.4992 23.3412 20.4642 23.3994 20.4468 23.4635C20.4293 23.5217 20.4235 23.5799 20.4351 23.6381C20.4875 23.8884 20.6854 24.0979 20.8659 24.29C21.2384 24.68 21.6517 25.035 22.0067 25.4541C22.3443 25.8674 22.7052 26.3796 22.6063 27.0141C22.4491 27.5787 22.1522 28.0385 21.867 28.5042C21.2791 29.4297 20.6214 30.2969 19.9404 31.1468L19.4165 31.7754C19.2361 31.9966 19.0382 32.1712 18.8985 32.3691C18.6016 32.7533 18.4037 33.2713 18.4619 33.6788L18.5027 33.9756L18.2466 33.9698H18.2233H18.0836L18.0137 33.865C17.2571 32.7242 16.7157 31.4436 16.3956 30.1223C16.2908 29.6974 16.2152 29.2725 16.1569 28.8418C15.9067 27.0606 16.0638 25.2737 16.2384 23.5158C16.2384 23.5508 16.2384 23.5799 16.2384 23.6148C16.3257 21.205 16.2443 19.2842 14.271 18.2423C13.5667 18.7429 13.2233 19.5636 12.9497 20.3436C12.6762 21.141 12.5423 21.9792 12.4375 22.8115C12.2571 24.4879 12.2571 26.1934 12.3153 27.893C12.3968 29.5868 12.583 31.2865 13.136 32.8755C13.4154 33.6671 13.8287 34.4122 14.3933 35.0292C14.8822 35.5647 15.505 35.9721 16.186 36.2573C16.2501 36.2806 16.3025 36.3039 16.3665 36.3214C17.0184 36.5367 17.7285 36.7404 18.2175 36.7346C18.9101 36.7172 19.0324 36.6881 19.5795 36.3505C23.0545 33.3353 23.6132 30.3959 23.3979 26.7289Z" fill="#DFC7B0"/>
<path d="M15.4819 36.0361C15.0687 35.8789 14.6845 35.617 14.3353 35.2794C14.3003 35.2503 14.2596 35.2212 14.2305 35.1921C13.5844 34.5926 13.1362 33.8184 12.7986 33.0152C12.752 32.8987 12.7113 32.7823 12.6647 32.6601C12.106 31.1409 11.9197 29.5227 11.8207 27.9279C11.7276 26.2108 11.716 24.4762 11.9779 22.7591C12.1176 21.9035 12.3388 21.0537 12.6647 20.2504C12.8219 19.843 13.0431 19.4588 13.2992 19.1096C13.5204 18.8127 13.7765 18.5275 14.0966 18.3412C14.1839 18.283 14.2421 18.2597 14.2596 18.2481C14.1956 18.2132 14.1315 18.1899 14.0675 18.1608C13.986 18.1317 13.8813 18.1026 13.7648 18.0735C13.4913 18.0036 13.1595 17.9396 12.915 17.9338C12.461 17.9221 10.1211 17.8523 9.15487 17.8523C9.13158 17.8523 9.10248 17.8523 9.08502 17.8523C8.7416 17.8523 8.32833 17.7941 7.88596 17.7009C5.84872 17.2819 3.13628 16.1061 3.13628 16.1061C2.21079 17.212 -0.874167 18.3529 0.918603 28.0909C2.71137 37.823 6.61705 40 9.93484 40C13.2526 40 15.8254 37.5145 16.4016 36.9383C16.4016 36.7579 16.4016 36.5309 16.4016 36.3795C16.0873 36.2922 15.7788 36.1758 15.4819 36.0361Z" fill="#C6E6D7"/>
<path fill-rule="evenodd" clip-rule="evenodd" d="M16.1627 6.29824C18.0544 5.00605 15.6505 0.675465 13.4794 1.44379C9.87055 -2.58412 1.26758 2.20048 2.30949 11.0246C0.452688 12.9687 -0.664883 17.4565 0.435226 21.0362C0.481792 20.0409 0.708798 19.0455 1.13371 18.12C1.34325 17.6427 1.62847 17.2004 1.97771 16.7871C2.35023 16.4146 2.65291 16.0479 2.96722 15.6463C3.59586 14.8605 4.14882 14.0106 4.75999 13.1899C5.06849 12.7825 5.37116 12.3692 5.70876 11.985C5.87756 11.8046 6.05218 11.6125 6.23845 11.4437C5.94159 11.5776 5.65638 11.7173 5.38281 11.8861C4.92879 12.1771 4.49806 12.538 4.27106 13.0502C4.43986 12.5147 4.85894 12.0956 5.30714 11.7755C5.76115 11.4495 6.25591 11.1934 6.76231 10.9606C7.77511 10.5066 8.81701 10.1341 9.85309 9.76155C10.8892 9.38902 11.9253 9.03978 12.9206 8.60905C13.9101 8.1725 14.888 7.68356 15.6097 6.83375C15.0801 7.82908 14.0789 8.48682 13.0952 8.9874C12.0882 9.47633 11.0405 9.84304 9.98696 10.169C8.93342 10.495 7.87406 10.7918 6.85544 11.1818C6.78559 11.2109 6.71574 11.24 6.64007 11.2691C6.35486 11.5136 6.12203 11.8279 5.90085 12.1306C5.60399 12.538 5.3246 12.9571 5.04521 13.382C4.5097 14.2144 3.95674 15.0467 3.35139 15.85C4.24777 16.304 5.16744 16.7114 6.11039 17.0723C6.60515 17.2644 7.11737 17.4216 7.62959 17.5613C8.10106 17.6835 8.57836 17.7824 9.06148 17.7999C8.39792 16.985 8.84611 14.779 9.39326 13.7836C9.20699 13.6498 9.02073 13.5159 8.84611 13.382C8.56672 13.1725 8.35717 12.8756 8.24076 12.5497C8.12435 12.2237 8.10688 11.8686 8.15927 11.5369C8.17673 12.2062 8.40956 12.8698 8.9276 13.2772C9.38743 13.6381 9.84145 13.9932 10.3304 14.3075C11.7797 15.134 12.0591 14.389 13.1709 13.6207C14.8531 12.4507 14.1313 11.3564 15.0044 10.7802C15.6388 10.3669 16.2326 9.29589 15.6214 6.83957C16.9776 7.68939 15.0393 9.54618 16.9776 10.3785C15.2372 8.77785 18.3396 8.13176 16.1627 6.29824Z" fill="#DFC7B0"/>
</svg>
