<svg width="16" height="40" viewBox="0 0 16 40" fill="none" xmlns="http://www.w3.org/2000/svg">
<g clip-path="url(#clip0)">
<path d="M12.7153 3.23629C12.606 2.47708 12.2264 1.80151 11.5894 1.22245C10.8302 0.53402 9.89083 0.141547 8.71341 0.0193019C8.52039 0 8.32737 0 8.14079 0H8.14722C5.10395 0 3.88793 1.77578 3.20593 1.62779C3.16089 1.61493 3.11586 1.60206 3.07725 1.58276C2.58827 1.3447 3.2767 1.76291 3.86863 1.96236C3.28314 2.76661 3.00648 3.78961 3.09012 4.94772C3.12229 5.32733 3.13516 6.13801 2.85206 6.43397C2.81346 6.47258 2.56253 6.67846 2.48533 6.82644C2.43385 7.03233 2.47889 7.18031 2.60114 7.36046C2.71051 7.50844 2.94214 7.64356 2.98074 7.77224C3.01935 7.90735 2.82633 8.1068 2.84563 8.20975C2.8971 8.36416 3.12872 8.36416 3.25097 8.58935C3.28314 8.67943 3.09012 8.87245 3.1995 9.04616C3.30887 9.21345 3.45686 9.12981 3.55337 9.22632C3.85576 9.47724 3.83003 9.50941 3.87506 9.93405C3.91367 10.2364 3.9201 10.4745 4.34474 10.7383C5.01388 11.1501 6.06905 11.105 6.5516 11.0536C6.59663 11.3624 6.5516 11.6777 6.46796 11.8835C7.14352 11.7034 9.33751 11.1887 10.7401 11.1372C10.4184 10.8541 9.923 10.3716 9.86509 10.0113C10.3283 9.696 10.7079 9.33569 11.0232 8.91748C11.5572 8.19688 11.9433 7.48271 12.2006 6.7428L12.2778 6.53048C12.4837 5.95142 12.696 5.35306 12.7411 4.60029L12.7539 4.50378C12.7604 4.16278 12.7797 3.6931 12.7153 3.23629Z" fill="#DFC7B0"/>
<path d="M14.6974 22.4031C14.5044 22.4353 14.0733 22.4481 13.8867 22.4417C13.713 22.4353 13.1404 22.3066 12.9538 22.2551C13.1146 22.7698 12.6771 23.6063 12.5677 23.9923C12.5484 24.0566 12.542 24.121 12.542 24.1853C12.5484 24.3076 12.587 24.4234 12.6578 24.5328C12.69 24.5842 12.735 24.6357 12.78 24.6807C12.9666 24.8673 13.2433 24.996 13.5135 25.0475C13.5586 25.0539 13.5907 25.0475 13.6358 25.0475C13.6808 25.0475 13.7258 25.0539 13.7644 25.0475C13.8095 25.0475 13.8481 25.041 13.8867 25.0346C13.9382 25.0282 13.9896 25.0153 14.0347 25.0024C14.0733 24.9896 14.1054 24.9767 14.1441 24.9638C14.1891 24.9445 14.2277 24.9252 14.2727 24.8995C14.3049 24.8802 14.3371 24.8609 14.3628 24.8416C14.4014 24.8158 14.4336 24.7837 14.4657 24.7515C14.4915 24.7258 14.5172 24.7 14.543 24.6743C14.5751 24.6357 14.6009 24.5971 14.6266 24.5585C14.6459 24.5263 14.6652 24.5006 14.6845 24.4684C14.7102 24.4234 14.7295 24.3783 14.7488 24.3269C14.7617 24.2947 14.7746 24.269 14.7874 24.2304C14.8068 24.1789 14.8132 24.121 14.8261 24.0631C14.8325 24.0373 14.8389 24.0052 14.8454 23.9794C14.8582 23.8894 14.8582 23.7993 14.8518 23.7092C14.8132 23.3489 14.8518 22.8149 14.6974 22.4031Z" fill="#DFC7B0"/>
<path d="M5.27148 14.2706C5.31652 14.2062 5.36156 14.1419 5.41947 14.084C5.38086 14.1162 5.32939 14.1869 5.27148 14.2706Z" fill="#C6E6D7"/>
<path d="M12.516 18.8708C12.5289 19.2247 12.5482 19.5786 12.574 19.9324C12.5997 20.2863 12.6319 20.6402 12.6769 20.9812C12.7026 21.1549 12.7284 21.3286 12.7605 21.4895C12.7863 21.6246 12.8442 21.7983 12.8699 21.8498L13.0501 21.9012C13.4232 22.0106 13.7449 22.0814 14.1052 22.0814C14.2661 22.0814 14.4398 22.0685 14.6328 22.0364L14.9031 21.9913C15.2955 21.1485 15.5915 18.8129 15.1411 17.3203C14.6007 15.5123 14.4784 12.8551 11.1907 11.5297C10.8497 11.4074 9.72371 11.5618 8.6814 11.7549C4.10685 12.4047 2.55626 13.7301 2.55626 16.7283C2.55626 18.7486 2.67851 18.9545 2.67851 18.9545C2.67851 18.9545 1.65551 20.949 1.56543 21.8948L1.58473 21.8755L1.82922 22.0364C2.34394 22.3774 2.72998 22.4803 3.30904 22.5639L3.61143 22.5575C3.52779 22.165 3.48919 21.7661 3.43772 21.3672C3.34121 20.5051 3.46989 19.6494 3.63073 18.8129C3.79158 17.9765 4.03607 17.1594 4.31274 16.3616C4.45428 15.9627 4.60226 15.5638 4.78242 15.1777C4.9304 14.8689 5.07194 14.5472 5.2714 14.2706C5.3293 14.1869 5.37434 14.1161 5.41938 14.084C5.14915 14.4121 5.01404 14.8239 4.85962 15.2099C4.71164 15.6024 4.58296 16.0077 4.45428 16.4066C4.20979 17.2109 4.01034 18.0344 3.84949 18.858C3.70151 19.6815 3.59856 20.5179 3.68221 21.3479C3.76585 22.1843 3.79158 23.0336 4.04894 23.8314C4.04894 23.8314 3.41841 26.5401 3.41841 29.6477C3.41841 30.8316 3.83662 31.4621 3.83662 31.4621C3.83662 31.4621 3.61143 32.4594 3.61143 34.2159C3.61143 35.1681 3.79158 35.8051 4.09398 36.1911C4.07468 36.3069 4.05538 36.4291 4.01034 36.5385C3.86879 36.9181 3.5857 37.2205 3.29617 37.5036C3.09671 37.6966 2.89083 37.8832 2.68494 38.0634C2.55626 38.1728 2.42115 38.295 2.36968 38.4559C2.3182 38.6231 2.36968 38.7969 2.42758 38.9641C2.56913 39.3437 2.79432 39.7298 3.16749 39.8842C3.3219 39.9485 3.49562 39.9678 3.66934 39.9807C4.23553 40.0257 4.85319 40.0064 5.31 39.6654C5.81185 39.2923 6.00487 38.636 6.44881 38.1985C6.52602 38.1213 6.60966 38.0569 6.66757 37.9669C6.74478 37.8511 6.77695 37.7159 6.80268 37.5808C6.86702 37.1433 6.79625 36.6801 6.5968 36.2812C6.50672 36.0946 6.38447 35.9209 6.30083 35.7343C6.28153 35.6892 6.2751 35.6442 6.25579 35.5992C6.75764 34.7821 7.16299 33.669 7.16299 32.9355C7.16299 31.6487 6.89276 31.0761 6.89276 31.0761C6.89276 31.0761 7.83212 29.1395 7.83212 28.3545C7.83212 28.3545 8.28893 28.6054 8.90659 28.4896C8.90659 28.4896 9.42131 30.304 10.1226 30.8445C10.1226 30.8445 10.0711 31.2048 10.1612 31.4686C10.2513 31.7323 10.6438 32.2535 10.6438 32.2535C10.6438 32.2535 10.9783 34.9107 11.8469 36.1074C11.834 36.4806 11.7633 36.8474 11.5574 37.1562C11.403 37.3878 11.1778 37.568 10.9655 37.7481C10.7531 37.9283 10.5408 38.1213 10.3993 38.3658C10.2642 38.6103 10.2127 38.9191 10.3414 39.17C10.4636 39.4081 10.7145 39.5432 10.959 39.6461C11.4158 39.8392 11.9177 39.9743 12.4067 39.9035C12.9729 39.8263 13.5004 39.4789 13.79 38.9834C14.0087 38.6103 14.0924 38.1728 14.3047 37.7932C14.4012 37.6194 14.5234 37.4586 14.5878 37.272C14.7358 36.8667 14.5942 36.397 14.3369 36.0495C14.2082 35.8823 14.0602 35.7343 13.9444 35.5541C13.9444 35.5477 13.938 35.5477 13.938 35.5413C14.279 34.6019 14.3047 33.3215 14.3047 32.7232C14.3047 31.7195 13.4232 30.1046 13.4232 29.5834C13.4232 29.2231 13.6356 27.1964 13.642 25.4013C13.5841 25.4013 13.5262 25.3949 13.4554 25.3885C12.9793 25.2984 12.5547 25.0346 12.3359 24.6872C12.1815 24.4362 12.1364 24.1596 12.2137 23.8829C12.2458 23.7735 12.2973 23.6384 12.3552 23.484C12.4839 23.1366 12.6833 22.6154 12.5997 22.3516L12.5354 22.1522C12.4388 22.0235 12.4195 21.9334 12.3938 21.8433C12.3681 21.7468 12.3488 21.6503 12.3359 21.5602C12.3037 21.3737 12.2909 21.1935 12.2716 21.0134C12.2394 20.6531 12.2265 20.2927 12.2201 19.9324C12.2137 19.5721 12.2137 19.2183 12.2201 18.858L12.2394 18.3175L12.2587 18.0602C12.2587 18.0151 12.2265 17.9186 12.1943 17.8478C11.9177 17.2109 11.5381 16.5996 11.1842 15.982C10.8303 15.3643 10.4443 14.766 10.1483 14.1161L10.1612 14.1097C10.4893 14.7402 10.9076 15.3193 11.2936 15.9176C11.6796 16.516 12.085 17.0951 12.4131 17.7513C12.4517 17.8414 12.4903 17.9122 12.5096 18.0473L12.5032 18.324L12.516 18.8708Z" fill="#C6E6D7"/>
<path d="M2.44679 22.7441C2.183 22.654 1.93207 22.5318 1.64898 22.3452C1.64255 22.3516 1.64255 22.3516 1.63611 22.3581C1.33372 22.6733 1.15356 23.1623 0.973413 23.4776C0.748224 23.8958 0.74179 24.3848 0.966979 24.7451C1.10209 24.9638 1.32728 25.1376 1.63611 25.2341C1.74549 25.2598 1.8613 25.2727 1.97711 25.2727C1.98998 25.2727 2.00928 25.2727 2.02215 25.2727C2.11866 25.2727 2.20874 25.2598 2.29881 25.2405C2.31811 25.2341 2.33742 25.2276 2.35672 25.2276C2.44036 25.2083 2.51757 25.1762 2.58191 25.1376C2.59477 25.1311 2.60121 25.1311 2.61408 25.1247C2.68485 25.0797 2.74919 25.0217 2.80066 24.9574C2.81353 24.9445 2.8264 24.9252 2.83283 24.9124C2.87787 24.8416 2.91647 24.7644 2.92934 24.6679C2.98081 24.359 2.95508 23.7221 3.10949 23.2653C3.15453 23.1302 3.21244 23.0143 3.29608 22.9243C2.98081 22.8857 2.71059 22.8342 2.44679 22.7441Z" fill="#DFC7B0"/>
</g>
<defs>
<clipPath id="clip0">
<rect x="0.799805" width="14.5729" height="40" fill="white"/>
</clipPath>
</defs>
</svg>
