<svg width="24" height="40" viewBox="0 0 24 40" fill="none" xmlns="http://www.w3.org/2000/svg">
<g clip-path="url(#clip0)">
<path d="M16.4566 2.44353C16.3741 1.87029 16.0874 1.36021 15.6065 0.923002C15.0333 0.403206 14.324 0.106874 13.435 0.0145737C13.3136 0 13.1873 0 13.0658 0L13.0755 0C13.0561 0 13.0415 0 13.0221 0C13.0027 0 12.9832 0 12.9638 0C10.3988 0.0437212 9.35924 1.54481 8.77144 1.41365C8.73257 1.40393 8.69371 1.39422 8.65485 1.37479C8.15934 1.13189 9.07263 1.68084 9.59728 1.77314C9.28637 2.3318 9.13092 2.99247 9.18436 3.73087C9.20379 4.01749 9.21836 4.63444 9.00461 4.85305C8.97547 4.8822 8.78601 5.03765 8.72771 5.14938C8.68885 5.30483 8.72286 5.41657 8.81516 5.55259C8.89774 5.66432 9.07263 5.76633 9.10177 5.86349C9.13092 5.96551 8.98518 6.1161 8.99976 6.19383C9.03376 6.31528 9.2135 6.31528 9.30581 6.48531C9.33009 6.55332 9.18436 6.69905 9.26694 6.83022C9.34953 6.95652 9.46126 6.89337 9.53413 6.96624C9.76245 7.1557 9.74302 7.17999 9.77702 7.50061C9.80617 7.72893 9.81103 7.90867 10.1316 8.10785C10.6369 8.41875 11.4336 8.38475 11.7979 8.34588C11.8319 8.57906 11.7493 8.5742 11.6862 8.72966C11.6862 9.03571 11.8854 9.23488 13.0172 9.23488C14.2706 9.23488 14.9555 8.96284 14.9555 8.40904C14.7127 8.19529 14.3386 7.83095 14.2949 7.5589C14.6446 7.32087 14.9313 7.04882 15.1693 6.73306C15.5725 6.18897 15.864 5.64974 16.0583 5.09109L16.1166 4.93077C16.272 4.49356 16.4324 4.04178 16.4664 3.4734L16.4858 3.40053C16.4955 3.14307 16.5052 2.78844 16.4566 2.44353Z" fill="#DFC7B0"/>
<path d="M14.7565 21.7391C13.9938 21.6662 12.7259 21.6274 11.8806 21.5982C11.7932 21.5933 11.7252 21.5933 11.6523 21.5933C11.5163 22.2249 11.22 22.871 10.671 23.3811C9.99576 24.0077 7.99916 25.1445 8.00888 26.4853C8.01374 26.8545 7.76113 29.5166 7.21218 31.7027C7.09074 32.1933 6.72154 32.9463 6.50293 33.5487L6.56608 33.5875C6.96929 33.845 7.79027 34.4085 8.12061 34.9234C8.40723 33.7818 10.1075 32.271 10.4281 31.4306C10.7487 30.5853 10.9771 28.2875 11.2005 27.9572C11.424 27.6269 13.7801 25.5185 13.7801 25.5185C13.7801 25.5185 13.7752 29.7886 14.261 30.4347C14.5039 30.7602 15.3589 31.4015 16.1556 32.1204C16.7968 32.7034 18.4874 34.8409 19.1772 35.9047L19.1869 35.8999L20.7463 34.8797C20.3382 33.9956 19.8233 32.6159 19.459 31.9261C18.9392 30.9351 17.2923 29.7546 17.2923 29.7546C17.2923 29.7546 18.089 27.0342 18.1522 25.7177C18.2105 24.547 17.9627 22.1277 17.8704 21.2533C17.3361 21.5253 16.5491 21.778 15.4755 21.778C15.2472 21.7731 15.0091 21.7634 14.7565 21.7391Z" fill="#C6E6D7"/>
<path d="M19.7943 12.3634C19.1045 11.3967 17.9337 9.99272 16.967 9.42435C16.2432 8.99685 15.5874 8.72481 15.2279 8.54993C15.1307 9.18145 14.3972 9.50693 13.0321 9.50693C12.2548 9.50693 11.4241 9.44864 11.4241 8.72967V8.71995C10.8266 8.71024 9.70929 8.75882 9.40325 9.23003C8.97575 9.88099 7.82443 13.2961 6.87228 13.8985C6.28447 14.2677 4.59392 14.7923 3.86523 15.0012L4.43847 16.036L4.53077 16.2108C5.18173 16.2691 6.68282 16.274 8.02846 15.2101C8.41709 14.9041 9.8016 12.9803 9.8016 12.9803C9.8016 12.9803 10.9335 18.1783 11.0161 18.9556C11.1035 19.7328 11.1035 19.7328 11.1035 19.7328L11.3124 21.2193L11.3756 21.3068C11.4679 21.3116 11.5796 21.3116 11.6962 21.3165C11.7593 21.3165 11.8176 21.3214 11.8856 21.3214C12.7309 21.3457 14.0085 21.3845 14.7761 21.4622C16.2237 21.6031 17.2245 21.2728 17.8317 20.9473C18.0795 20.8161 18.2592 20.685 18.3758 20.5878C18.3855 20.3206 18.3612 19.8106 18.0843 19.2082C17.6811 18.3289 18.0552 17.1873 18.1086 16.3372C18.1621 15.487 17.9677 13.9519 17.9677 13.9519C17.9677 13.9519 20.8096 17.9548 21.2857 18.8195L21.412 18.7953L22.6362 18.5475L22.6702 18.5426C22.3301 17.6731 20.4404 13.2767 19.7943 12.3634Z" fill="#C6E6D7"/>
<path d="M7.99423 35.3316C7.99423 35.2879 7.98451 35.2441 7.96508 35.1956C7.75619 34.666 6.42026 33.8159 6.42026 33.8159C6.41541 33.8256 6.40569 33.8402 6.40083 33.8499C6.39112 33.8694 6.37654 33.8888 6.36197 33.9131C6.3474 33.9422 6.33282 33.9665 6.31339 34.0005C6.30367 34.0151 6.29396 34.0297 6.28424 34.0442C6.26481 34.0734 6.24538 34.1025 6.22109 34.1317C6.21137 34.1463 6.20166 34.1608 6.18708 34.1754C6.15308 34.2143 6.11422 34.2531 6.06564 34.292L6.06078 34.2968C6.0122 34.3309 5.9539 34.36 5.89075 34.3892C5.87132 34.3989 5.84703 34.4037 5.8276 34.4086C5.77902 34.4232 5.72558 34.4377 5.66243 34.4426C5.63328 34.4474 5.59928 34.4474 5.57013 34.4523C5.54584 34.4523 5.52155 34.4572 5.49726 34.4572C5.4584 34.4572 5.40496 34.4474 5.36124 34.4474C5.32724 34.4426 5.29323 34.4426 5.25922 34.4377C5.14263 34.4232 5.01633 34.3989 4.87059 34.3551C4.80744 34.3357 4.72971 34.3163 4.64227 34.292C4.63741 34.292 4.63255 34.292 4.6277 34.2871C4.54025 34.2628 4.4431 34.2386 4.34108 34.2191C4.33136 34.2191 4.32165 34.2143 4.31193 34.2143C4.20992 34.1948 4.1079 34.1754 4.00103 34.1608C3.98645 34.1608 3.97674 34.156 3.96216 34.156C3.85529 34.1414 3.75327 34.1365 3.65126 34.1365C3.63668 34.1365 3.62211 34.1365 3.61239 34.1365C3.52495 34.1365 3.43751 34.1463 3.35493 34.156C3.34035 34.156 3.33064 34.1608 3.32092 34.1657C3.23834 34.1803 3.16547 34.2046 3.09746 34.2386C3.08774 34.2434 3.08288 34.2483 3.07317 34.2531C3.00516 34.292 2.94686 34.3357 2.89828 34.394C2.89342 34.3989 2.89342 34.4037 2.88857 34.4086C2.83999 34.4717 2.80598 34.5495 2.78655 34.6418C2.61652 35.4725 3.1266 36.0165 3.72898 36.1866C3.87958 36.2303 4.04961 36.2546 4.22449 36.2643C4.49168 36.2837 4.77829 36.2886 5.06005 36.3032C5.24951 36.3129 5.43411 36.3323 5.60899 36.3712C5.69644 36.3906 5.77902 36.41 5.8616 36.4392C5.93447 36.4635 6.0122 36.4975 6.08993 36.5315C6.11422 36.5412 6.13851 36.5558 6.1628 36.5655C6.22109 36.5946 6.27938 36.6189 6.34254 36.6481C6.42512 36.6869 6.50771 36.7258 6.59515 36.7647C6.60486 36.7695 6.60972 36.7744 6.61944 36.7744C6.69231 36.8084 6.76518 36.8375 6.83804 36.8667C6.85748 36.8764 6.88177 36.8813 6.9012 36.891C6.95463 36.9104 7.00807 36.9298 7.06151 36.9395C7.08094 36.9444 7.10523 36.9493 7.12466 36.9541C7.18781 36.9687 7.25097 36.9784 7.31412 36.9784C7.31898 36.9784 7.32383 36.9784 7.32869 36.9784C7.37241 36.9784 7.41613 36.9687 7.455 36.959C7.47929 36.9541 7.50358 36.9541 7.52787 36.9493C7.59102 36.925 7.64931 36.891 7.69789 36.8375C8.1011 36.4295 7.97965 35.7542 7.99423 35.3316Z" fill="#DFC7B0"/>
<path d="M21.4848 35.7299C21.4362 35.6911 21.3925 35.657 21.3536 35.623C21.2759 35.5599 21.2225 35.5016 21.1739 35.453C21.1059 35.3753 21.0622 35.3121 21.0136 35.2441C20.9796 35.2004 20.9456 35.1518 20.9019 35.0984L20.863 35.1227L19.3376 36.1234C19.3522 36.1623 19.3813 36.2157 19.4105 36.2789C19.4299 36.3226 19.4493 36.3663 19.4688 36.4197C19.4688 36.4246 19.4736 36.4343 19.4736 36.4392C19.4882 36.4878 19.5028 36.5363 19.5076 36.5898C19.5174 36.6529 19.5174 36.7161 19.5076 36.7889C19.4882 36.9298 19.4299 37.0901 19.2987 37.265C19.2016 37.3962 19.0607 37.5371 18.8664 37.6877C18.4729 37.9937 17.307 38.9216 17.8802 39.5434C17.9531 39.6211 18.026 39.6891 18.1037 39.7474C18.128 39.7668 18.1523 39.7766 18.1766 39.7911C18.23 39.8251 18.2834 39.8591 18.3369 39.8834C18.366 39.898 18.4 39.9029 18.4292 39.9174C18.4778 39.9369 18.5263 39.9563 18.5749 39.966C18.6089 39.9757 18.6429 39.9757 18.6769 39.9757C18.7207 39.9806 18.7692 39.9903 18.813 39.9903C18.8567 39.9903 18.9004 39.9854 18.949 39.9806C18.983 39.9757 19.017 39.9757 19.0461 39.9709C19.0947 39.9612 19.1384 39.9466 19.1822 39.932C19.2113 39.9223 19.2405 39.9174 19.2696 39.9077C19.3182 39.8883 19.3668 39.864 19.4153 39.8397C19.4396 39.83 19.4591 39.8203 19.4833 39.8057C19.5514 39.7668 19.6145 39.7231 19.6777 39.6745C19.8623 39.5288 20.0323 39.3248 20.2023 39.1062C20.3189 38.9604 20.4306 38.8098 20.5472 38.6641C20.727 38.4455 20.9116 38.2415 21.1253 38.0909C21.3342 37.9403 21.5965 37.8091 21.8394 37.6731C21.922 37.6294 21.9997 37.5808 22.0726 37.5322C22.2183 37.435 22.3447 37.3379 22.4272 37.2213C22.5098 37.1096 22.5487 36.9833 22.5244 36.8375C22.4418 36.2837 21.82 35.9922 21.4848 35.7299Z" fill="#DFC7B0"/>
<path d="M19.1772 35.9048C19.3424 36.1574 19.4493 36.3469 19.4736 36.444C19.4736 36.444 19.4736 36.444 19.4736 36.4489C19.4736 36.444 19.4687 36.4343 19.4687 36.4294C19.4493 36.376 19.4299 36.3323 19.4104 36.2886C19.3813 36.2254 19.3521 36.172 19.3376 36.1331L20.8629 35.1324C20.8241 35.0546 20.7852 34.9721 20.7415 34.8798L19.1821 35.8999L19.1772 35.9048Z" fill="white"/>
<path d="M3.30654 15.1032C3.30654 15.1032 3.30169 15.1032 3.30654 15.1032C3.29683 15.1032 3.29197 15.1032 3.28225 15.1032C3.2774 15.1032 3.26768 15.1032 3.25797 15.1032C3.24825 15.1032 3.23853 15.1032 3.22882 15.1032C3.2191 15.1032 3.19967 15.1032 3.1851 15.1032C3.17052 15.1032 3.16081 15.1032 3.14138 15.1081C3.1268 15.1081 3.10737 15.113 3.08794 15.113C3.06851 15.113 3.05393 15.1178 3.0345 15.1178C3.01507 15.1178 2.99078 15.1227 2.97135 15.1275C2.95192 15.1324 2.92763 15.1324 2.9082 15.1372C2.88391 15.1421 2.85962 15.147 2.83533 15.147C2.81104 15.1518 2.78675 15.1567 2.76246 15.1567C2.73817 15.1615 2.70902 15.1664 2.67987 15.1713C2.65558 15.1761 2.62644 15.181 2.59729 15.1858C2.56814 15.1907 2.53899 15.2004 2.50985 15.2053C2.4807 15.2101 2.45155 15.2198 2.42241 15.2247C2.39326 15.2344 2.35925 15.2441 2.3301 15.2538C2.30096 15.2636 2.27181 15.2733 2.24266 15.283C2.20866 15.2927 2.17951 15.3073 2.1455 15.317C2.11636 15.3267 2.08721 15.3364 2.05806 15.351C2.02406 15.3656 1.99491 15.3801 1.9609 15.3947C1.93176 15.4093 1.90261 15.419 1.87346 15.4336C1.83946 15.4482 1.81031 15.4676 1.7763 15.487C1.75201 15.5016 1.72287 15.5162 1.69858 15.5307C1.66457 15.5502 1.63542 15.5745 1.60142 15.5988C1.57713 15.6182 1.55284 15.6328 1.52855 15.6522C1.49454 15.6765 1.4654 15.7056 1.43625 15.7348C1.41682 15.7542 1.39253 15.7736 1.3731 15.7931C1.33909 15.8271 1.30994 15.8611 1.2808 15.8999C1.26622 15.9194 1.24679 15.9339 1.23222 15.9534C1.1885 16.0117 1.14478 16.07 1.11077 16.138C1.04762 16.2497 0.99418 16.3566 0.950459 16.4537C0.824154 16.7452 0.795006 16.959 0.80958 17.1193C0.833869 17.401 1.13992 17.8091 1.4994 17.8091C1.66457 17.8091 1.76173 17.7459 1.82488 17.6731C1.88804 17.6002 1.91718 17.5176 1.93661 17.4885C1.95119 17.4642 1.96576 17.4399 1.98034 17.4107C2.00948 17.3573 2.03863 17.3039 2.07264 17.2553C2.16008 17.1241 2.28638 16.9978 2.55357 16.9201C2.98592 16.7938 3.75833 16.5558 3.97694 16.3614C4.19554 16.1671 4.19554 16.1671 4.19554 16.1671C4.19554 16.1671 4.2004 16.1671 4.20526 16.1671L3.60288 15.0741C3.5883 15.079 3.56401 15.0838 3.5543 15.0838C3.30654 15.1032 3.30654 15.1032 3.30654 15.1032Z" fill="#DFC7B0"/>
<path d="M23.3406 19.8057C23.2094 19.5288 23.0588 19.3053 22.9665 19.1742C22.9082 19.0965 22.8742 19.0527 22.8742 19.0527C22.8742 19.0527 22.8742 19.0527 22.8111 18.9702C22.7916 18.941 22.7625 18.907 22.7285 18.8584C22.7236 18.8487 22.7139 18.8341 22.7091 18.8147L21.4849 19.0625L21.4897 19.0673C21.4897 19.0673 21.4897 19.0673 21.4849 19.3588C21.4849 19.4317 21.5043 19.5337 21.5334 19.6503C21.5674 19.7668 21.6112 19.9029 21.6597 20.0389C21.7083 20.1749 21.7666 20.3158 21.8249 20.447C21.8784 20.5781 21.9366 20.7044 21.9804 20.8064C22.1164 21.1125 22.0678 21.3068 22.0095 21.4768C21.9901 21.5351 21.9658 21.5886 21.9512 21.642C21.9464 21.6517 21.9415 21.6614 21.9366 21.676C21.9124 21.7294 21.8735 21.8169 21.8735 21.9238C21.8735 21.9772 21.8881 22.0355 21.9221 22.0938C21.9366 22.1229 21.9609 22.1521 21.9852 22.1861C22.0144 22.2201 22.0484 22.2492 22.0872 22.2784C22.1018 22.2881 22.1164 22.293 22.131 22.3027C22.1553 22.3172 22.1844 22.3318 22.2087 22.3415C22.2281 22.3464 22.2476 22.3513 22.267 22.3561C22.2913 22.3658 22.3204 22.3707 22.3447 22.3755C22.3641 22.3804 22.3836 22.3804 22.4079 22.3804C22.4322 22.3853 22.4613 22.3853 22.4856 22.3853C22.4953 22.3853 22.505 22.3853 22.5196 22.3853C22.5973 22.3853 22.6799 22.3755 22.7479 22.3561C22.7528 22.3561 22.7576 22.3513 22.7625 22.3513C22.8354 22.3318 22.9034 22.3027 22.9568 22.2638C23.1317 22.1375 23.3357 21.8898 23.5106 21.404C23.564 21.2631 23.5883 21.1173 23.6029 20.9765C23.6078 20.9036 23.6078 20.8356 23.6078 20.7627C23.6029 20.6947 23.5981 20.6218 23.5883 20.5538C23.5398 20.2866 23.4475 20.0243 23.3406 19.8057Z" fill="#DFC7B0"/>
</g>
<defs>
<clipPath id="clip0">
<rect x="0.799805" width="22.7982" height="40" fill="white"/>
</clipPath>
</defs>
</svg>
