<svg width="30" height="30" viewBox="0 0 30 30" fill="none" xmlns="http://www.w3.org/2000/svg">
<g clip-path="url(#clip0)">
<path d="M11.6001 18.6997C13.5001 20.6997 15.8001 22.0997 18.4001 22.8997C20.5001 23.4997 22.1001 22.5997 22.4001 21.8997C22.7001 21.0997 22.9001 20.2997 23.1001 19.4997C23.3001 18.1997 18.7001 16.3997 18.0001 17.6997C17.8001 17.9997 17.6001 19.0997 16.5001 18.3997C14.8001 16.9997 13.1001 15.2997 11.7001 13.5997C11.1001 12.4997 12.1001 12.2997 12.4001 12.0997C13.6001 11.4997 11.8001 6.89965 10.6001 6.99965C10.3001 6.99965 8.60005 7.59965 8.20005 7.69965C7.50005 7.99965 6.60005 9.59965 7.20005 11.6997C8.10005 14.2997 9.60005 16.6997 11.6001 18.6997Z" stroke="#748B85" stroke-width="2" stroke-miterlimit="10" stroke-linecap="round" stroke-linejoin="round"/>
</g>
<defs>
<clipPath id="clip0">
<rect width="18.1" height="18.1" fill="white" transform="translate(6 6)"/>
</clipPath>
</defs>
</svg>
