<svg width="27" height="27" viewBox="0 0 27 27" fill="none" xmlns="http://www.w3.org/2000/svg">
<path d="M8.14286 26H18.8571C22.8018 26 26 22.8018 26 18.8571V8.14286C26 4.19821 22.8018 1 18.8571 1H8.14286C4.19821 1 1 4.19821 1 8.14286V18.8571C1 22.8018 4.19821 26 8.14286 26Z" stroke="#F2ECE3" stroke-opacity="0.5" stroke-width="2" stroke-miterlimit="10"/>
<path d="M13.4997 19.4526C16.7872 19.4526 19.4521 16.7876 19.4521 13.5002C19.4521 10.2128 16.7872 7.54785 13.4997 7.54785C10.2123 7.54785 7.54736 10.2128 7.54736 13.5002C7.54736 16.7876 10.2123 19.4526 13.4997 19.4526Z" stroke="#F2ECE3" stroke-opacity="0.5" stroke-width="2" stroke-miterlimit="10"/>
<path d="M20.6426 7.54794C21.3001 7.54794 21.8331 7.01495 21.8331 6.35747C21.8331 5.69999 21.3001 5.16699 20.6426 5.16699C19.9851 5.16699 19.4521 5.69999 19.4521 6.35747C19.4521 7.01495 19.9851 7.54794 20.6426 7.54794Z" fill="#F2ECE3" fill-opacity="0.5"/>
</svg>
