<svg width="27" height="40" viewBox="0 0 27 40" fill="none" xmlns="http://www.w3.org/2000/svg">
<path d="M21.8402 21.5652C21.4258 21.6079 20.9655 21.6363 20.5204 21.6435C22.7686 19.9074 26.4516 15.923 26.0066 8.70138C25.9913 8.43812 25.8224 8.21045 25.5692 8.09661C25.316 7.98988 25.0168 8.01123 24.7943 8.16064C24.7866 8.16776 24.3109 8.48793 23.6357 8.88637C23.4362 6.55267 22.6765 1.57932 19.6304 0.0851853C19.4539 -0.00730895 19.2467 -0.0215388 19.0549 0.0282657C18.8017 0.0994151 13.2081 1.73585 10.9215 9.7615C10.5686 9.37018 10.2233 8.83656 10.1082 8.18199C10.0622 7.91873 9.84732 7.69817 9.57109 7.61991C9.28719 7.54164 8.98027 7.61991 8.78078 7.81912C8.63499 7.96854 5.48907 11.2485 6.21033 16.9405C5.62718 16.5207 5.0824 15.98 4.95963 15.4179C4.90592 15.1617 4.70643 14.9554 4.43787 14.8771C4.16932 14.7989 3.87775 14.8629 3.67825 15.0479C3.47108 15.2329 -1.46264 19.7011 0.432581 25.6065C1.32265 28.3742 2.18969 30.7648 2.70378 32.1522C2.88026 32.6147 3.01837 32.9633 3.10278 33.1768V33.1839C1.79837 36.4141 1.18453 39.6158 1.18453 40C2.00554 39.2814 2.84189 39.1249 2.84189 39.1249C2.84189 39.0964 3.23322 36.9406 4.52228 33.7104H4.52995C4.76014 33.1199 5.02869 32.4937 5.33561 31.8463C6.11825 30.1956 7.13109 28.3671 8.45084 26.4674C14.8271 17.3176 16.9525 13.4328 17.7965 9.9963C17.9423 9.39864 17.8732 8.82945 17.7888 8.67292C18.9321 9.86111 18.5024 12.5434 18.1878 13.3332C16.8758 16.6986 7.70656 28.3102 6.37146 31.4407C6.08756 32.1095 5.7653 32.7214 5.51209 33.3191C7.46102 32.5578 11.1594 31.1419 13.4306 30.4802C20.7583 28.3528 22.5998 22.7036 22.6689 22.4688C22.7456 22.234 22.6842 21.9921 22.5154 21.8071C22.3543 21.6221 22.1011 21.5296 21.8402 21.5652Z" fill="#C6E6D7"/>
</svg>
