<svg width="16" height="16" viewBox="0 0 16 16" fill="none" xmlns="http://www.w3.org/2000/svg">
<g clip-path="url(#clip0)">
<path d="M14.5003 14.5L10.3003 10.3" stroke="#748B85" stroke-width="2" stroke-miterlimit="10" stroke-linecap="round" stroke-linejoin="round"/>
<path d="M10.1001 14.7C10.1001 14.7 14.6001 14.7 14.7001 14.6C14.8001 14.5 14.8001 10.1 14.8001 10.1" stroke="#748B85" stroke-width="2" stroke-miterlimit="10" stroke-linecap="round" stroke-linejoin="round"/>
<path d="M1.2002 1.2L5.5002 5.5" stroke="#748B85" stroke-width="2" stroke-miterlimit="10" stroke-linecap="round" stroke-linejoin="round"/>
<path d="M1 5.7C1 5.7 1 1.2 1.1 1.1C1.2 1 5.7 1 5.7 1" stroke="#748B85" stroke-width="2" stroke-miterlimit="10" stroke-linecap="round" stroke-linejoin="round"/>
<path d="M14.5003 1.2L10.3003 5.5" stroke="#748B85" stroke-width="2" stroke-miterlimit="10" stroke-linecap="round" stroke-linejoin="round"/>
<path d="M10.1001 1C10.1001 1 14.6001 1 14.7001 1.1C14.8001 1.2 14.8001 5.6 14.8001 5.6" stroke="#748B85" stroke-width="2" stroke-miterlimit="10" stroke-linecap="round" stroke-linejoin="round"/>
<path d="M1.2002 14.5L5.5002 10.3" stroke="#748B85" stroke-width="2" stroke-miterlimit="10" stroke-linecap="round" stroke-linejoin="round"/>
<path d="M1 10.1C1 10.1 1 14.6 1.1 14.7C1.2 14.8 5.6 14.8 5.6 14.8" stroke="#748B85" stroke-width="2" stroke-miterlimit="10" stroke-linecap="round" stroke-linejoin="round"/>
</g>
<defs>
<clipPath id="clip0">
<rect width="15.7" height="15.8" fill="white"/>
</clipPath>
</defs>
</svg>
