<svg width="35" height="35" viewBox="0 0 35 35" fill="none" xmlns="http://www.w3.org/2000/svg">
<g filter="url(#filter0_d)">
<path d="M12.1429 26H22.8571C26.8018 26 30 22.8018 30 18.8571V8.14286C30 4.19821 26.8018 1 22.8571 1H12.1429C8.19821 1 5 4.19821 5 8.14286V18.8571C5 22.8018 8.19821 26 12.1429 26Z" stroke="white" stroke-width="2" stroke-miterlimit="10"/>
<path d="M17.4997 19.4526C20.7872 19.4526 23.4521 16.7876 23.4521 13.5002C23.4521 10.2128 20.7872 7.54785 17.4997 7.54785C14.2123 7.54785 11.5474 10.2128 11.5474 13.5002C11.5474 16.7876 14.2123 19.4526 17.4997 19.4526Z" stroke="white" stroke-width="2" stroke-miterlimit="10"/>
<path d="M24.6426 7.54794C25.3001 7.54794 25.8331 7.01495 25.8331 6.35747C25.8331 5.69999 25.3001 5.16699 24.6426 5.16699C23.9851 5.16699 23.4521 5.69999 23.4521 6.35747C23.4521 7.01495 23.9851 7.54794 24.6426 7.54794Z" fill="white"/>
</g>
<defs>
<filter id="filter0_d" x="0" y="0" width="35" height="35" filterUnits="userSpaceOnUse" color-interpolation-filters="sRGB">
<feFlood flood-opacity="0" result="BackgroundImageFix"/>
<feColorMatrix in="SourceAlpha" type="matrix" values="0 0 0 0 0 0 0 0 0 0 0 0 0 0 0 0 0 0 127 0"/>
<feOffset dy="4"/>
<feGaussianBlur stdDeviation="2"/>
<feColorMatrix type="matrix" values="0 0 0 0 0 0 0 0 0 0 0 0 0 0 0 0 0 0 0.25 0"/>
<feBlend mode="normal" in2="BackgroundImageFix" result="effect1_dropShadow"/>
<feBlend mode="normal" in="SourceGraphic" in2="effect1_dropShadow" result="shape"/>
</filter>
</defs>
</svg>
