<svg width="30" height="30" viewBox="0 0 30 30" fill="none" xmlns="http://www.w3.org/2000/svg">
<g clip-path="url(#clip0)">
<path d="M6.44995 15.86C6.44995 15.86 11.22 10.23 16.4 10.64C21.58 11.06 25.3899 17.38 25.3899 17.38" stroke="#748B85" stroke-width="2" stroke-miterlimit="10" stroke-linecap="round" stroke-linejoin="round"/>
<path d="M16.16 11.13C18.64 11.33 20.48 13.5 20.28 15.98C20.08 18.46 17.91 20.3 15.43 20.1C12.95 19.9 11.11 17.73 11.31 15.25C11.52 12.78 13.69 10.93 16.16 11.13Z" stroke="#748B85" stroke-width="2" stroke-miterlimit="10"/>
<path d="M15.9199 14.1199C16.7499 14.1899 17.3599 14.9099 17.2899 15.7399C17.2199 16.5699 16.4999 17.1799 15.6699 17.1099C14.8399 17.0399 14.2299 16.3199 14.2999 15.4899C14.3699 14.6699 15.0999 14.0499 15.9199 14.1199Z" fill="#748B85"/>
<path d="M22.31 9.59009L9.30005 21.5901" stroke="#748B85" stroke-width="2" stroke-miterlimit="10" stroke-linecap="round"/>
<path d="M23.9437 5.99925L4.00146 24.2L4.67556 24.9386L24.6178 6.73785L23.9437 5.99925Z" fill="white"/>
</g>
<defs>
<clipPath id="clip0">
<rect width="22.39" height="18.94" fill="white" transform="translate(4 6)"/>
</clipPath>
</defs>
</svg>
