<svg width="145" height="25" viewBox="0 0 145 25" fill="none" xmlns="http://www.w3.org/2000/svg">
<path d="M12.5 0L15.4389 8.45492L24.3882 8.63729L17.2553 14.0451L19.8473 22.6127L12.5 17.5L5.15268 22.6127L7.74472 14.0451L0.611794 8.63729L9.56107 8.45492L12.5 0Z" fill="#748B85"/>
<path d="M72.5 0L75.4389 8.45492L84.3882 8.63729L77.2553 14.0451L79.8473 22.6127L72.5 17.5L65.1527 22.6127L67.7447 14.0451L60.6118 8.63729L69.5611 8.45492L72.5 0Z" fill="#748B85"/>
<path d="M42.5 0L45.4389 8.45492L54.3882 8.63729L47.2553 14.0451L49.8473 22.6127L42.5 17.5L35.1527 22.6127L37.7447 14.0451L30.6118 8.63729L39.5611 8.45492L42.5 0Z" fill="#748B85"/>
<path d="M102.5 0L105.439 8.45492L114.388 8.63729L107.255 14.0451L109.847 22.6127L102.5 17.5L95.1527 22.6127L97.7447 14.0451L90.6118 8.63729L99.5611 8.45492L102.5 0Z" fill="#748B85"/>
<path d="M132.5 0L135.439 8.45492L144.388 8.63729L137.255 14.0451L139.847 22.6127L132.5 17.5L125.153 22.6127L127.745 14.0451L120.612 8.63729L129.561 8.45492L132.5 0Z" fill="#748B85"/>
</svg>
